<svg width="35" height="35" viewBox="0 0 35 35" fill="none" xmlns="http://www.w3.org/2000/svg">
<path d="M11.2093 2.74865C11.3702 2.49107 11.2919 2.15174 11.0344 1.99075C10.7768 1.82976 10.4374 1.90807 10.2765 2.16565L11.2093 2.74865ZM24.9335 2.18231C24.7817 1.9192 24.4454 1.82896 24.1823 1.98075C23.9192 2.13255 23.8289 2.46889 23.9807 2.732L24.9335 2.18231ZM23.0857 33.5429V34.0929C23.3555 34.0929 23.5854 33.8972 23.6286 33.631C23.6718 33.3647 23.5155 33.1064 23.2596 33.0211L23.0857 33.5429ZM12.1143 33.5429L11.9404 33.0211C11.6845 33.1064 11.5282 33.3647 11.5714 33.631C11.6146 33.8972 11.8445 34.0929 12.1143 34.0929V33.5429ZM24.4571 2.45715C23.9807 2.732 23.9807 2.73189 23.9806 2.73179C23.9806 2.73178 23.9806 2.73171 23.9806 2.73169C23.9805 2.73166 23.9806 2.7317 23.9806 2.73181C23.9808 2.73204 23.9811 2.73255 23.9815 2.73334C23.9824 2.73494 23.984 2.73767 23.9862 2.74154C23.9905 2.74926 23.9974 2.76151 24.0066 2.77816C24.025 2.81148 24.0528 2.86244 24.0886 2.93025C24.1601 3.06588 24.2637 3.2688 24.3887 3.5326C24.6387 4.0604 24.9737 4.83077 25.3093 5.79259C25.9811 7.71858 26.65 10.3986 26.65 13.4286H27.75C27.75 10.2414 27.0475 7.43573 26.3479 5.43028C25.9977 4.42639 25.647 3.61962 25.3828 3.06171C25.2506 2.78265 25.1399 2.56557 25.0614 2.41692C25.0222 2.34258 24.9911 2.28533 24.9693 2.24597C24.9584 2.22628 24.9499 2.21107 24.9439 2.20043C24.9409 2.19511 24.9385 2.19093 24.9368 2.1879C24.9359 2.18639 24.9352 2.18517 24.9347 2.18423C24.9344 2.18377 24.9342 2.18337 24.934 2.18305C24.9339 2.18289 24.9338 2.1827 24.9337 2.18262C24.9336 2.18246 24.9335 2.18231 24.4571 2.45715ZM26.65 13.4286C26.65 17.1726 25.3348 19.6446 23.5798 21.1869C21.8098 22.7423 19.5454 23.3929 17.6 23.3929V24.4929C19.7688 24.4929 22.3045 23.772 24.3059 22.0132C26.3223 20.2412 27.75 17.456 27.75 13.4286H26.65ZM17.6 23.3929C15.6334 23.3929 13.3727 22.8451 11.613 21.3521C9.87082 19.8739 8.55 17.4101 8.55 13.4286H7.45C7.45 17.6756 8.87204 20.469 10.9013 22.1908C12.913 23.8977 15.4523 24.4929 17.6 24.4929V23.3929ZM8.55 13.4286C8.55 10.2132 9.22 7.53355 9.88939 5.65928C10.2239 4.72255 10.5577 3.98865 10.8062 3.49169C10.9304 3.24328 11.0332 3.05427 11.104 2.92896C11.1393 2.86631 11.1667 2.8196 11.1847 2.78936C11.1937 2.77425 11.2003 2.76325 11.2045 2.75644C11.2066 2.75304 11.208 2.75068 11.2088 2.74938C11.2092 2.74873 11.2094 2.74834 11.2095 2.74822C11.2096 2.74816 11.2096 2.74817 11.2095 2.74824C11.2095 2.74827 11.2094 2.74838 11.2094 2.7484C11.2093 2.74852 11.2093 2.74865 10.7429 2.45715C10.2765 2.16565 10.2764 2.16582 10.2762 2.16601C10.2762 2.1661 10.2761 2.1663 10.2759 2.16647C10.2757 2.16681 10.2755 2.16722 10.2752 2.16769C10.2746 2.16864 10.2738 2.16985 10.2729 2.17134C10.2711 2.17431 10.2686 2.17834 10.2655 2.18345C10.2593 2.19365 10.2505 2.2081 10.2394 2.22673C10.2173 2.264 10.1857 2.318 10.146 2.3882C10.0668 2.5286 9.95529 2.73389 9.82235 2.99976C9.55655 3.53137 9.20464 4.30604 8.85347 5.28931C8.15142 7.25504 7.45 10.0611 7.45 13.4286H8.55ZM17.05 23.9429V29.8857H18.15V23.9429H17.05ZM17.05 29.8857C17.05 30.6077 17.5732 31.2079 18.105 31.6511C18.667 32.1194 19.3961 32.5416 20.0969 32.8919C20.8028 33.2449 21.5053 33.5374 22.0292 33.7412C22.2918 33.8433 22.5109 33.9236 22.665 33.9787C22.7421 34.0062 22.803 34.0274 22.845 34.0419C22.866 34.0491 22.8823 34.0547 22.8935 34.0585C22.8992 34.0604 22.9035 34.0619 22.9066 34.0629C22.9081 34.0634 22.9093 34.0638 22.9102 34.0641C22.9106 34.0643 22.911 34.0644 22.9112 34.0645C22.9114 34.0645 22.9115 34.0646 22.9116 34.0646C22.9117 34.0646 22.9118 34.0646 23.0857 33.5429C23.2596 33.0211 23.2597 33.0211 23.2597 33.0211C23.2597 33.0211 23.2597 33.0211 23.2597 33.0211C23.2596 33.0211 23.2595 33.021 23.2593 33.021C23.2588 33.0208 23.258 33.0205 23.2569 33.0202C23.2547 33.0194 23.2512 33.0182 23.2464 33.0166C23.2369 33.0134 23.2224 33.0085 23.2032 33.0019C23.1649 32.9887 23.1079 32.9688 23.035 32.9428C22.8891 32.8907 22.6796 32.8139 22.4279 32.716C21.9232 32.5197 21.2543 32.2408 20.5888 31.9081C19.9181 31.5727 19.2759 31.1949 18.8092 30.8061C18.3125 30.3921 18.15 30.0781 18.15 29.8857H17.05ZM23.0857 32.9929H12.1143V34.0929H23.0857V32.9929ZM12.1143 33.5429C12.2882 34.0646 12.2883 34.0646 12.2884 34.0646C12.2885 34.0646 12.2886 34.0645 12.2888 34.0645C12.289 34.0644 12.2894 34.0643 12.2898 34.0641C12.2907 34.0638 12.2919 34.0634 12.2934 34.0629C12.2965 34.0619 12.3008 34.0604 12.3065 34.0585C12.3177 34.0547 12.334 34.0491 12.355 34.0419C12.397 34.0274 12.4579 34.0062 12.535 33.9787C12.6891 33.9236 12.9082 33.8433 13.1708 33.7412C13.6947 33.5374 14.3972 33.2449 15.1031 32.8919C15.8039 32.5416 16.533 32.1194 17.095 31.6511C17.6268 31.2079 18.15 30.6077 18.15 29.8857H17.05C17.05 30.0781 16.8875 30.3921 16.3908 30.8061C15.9241 31.1949 15.2819 31.5727 14.6112 31.9081C13.9457 32.2408 13.2768 32.5197 12.7721 32.716C12.5204 32.8139 12.3109 32.8907 12.165 32.9428C12.0921 32.9688 12.0351 32.9887 11.9968 33.0019C11.9776 33.0085 11.9631 33.0134 11.9536 33.0166C11.9488 33.0182 11.9453 33.0194 11.9431 33.0202C11.942 33.0205 11.9412 33.0208 11.9407 33.021C11.9405 33.021 11.9404 33.0211 11.9403 33.0211C11.9403 33.0211 11.9403 33.0211 11.9403 33.0211C11.9403 33.0211 11.9404 33.0211 12.1143 33.5429Z" fill="#666666"/>
<path d="M12 17.45C11.6962 17.45 11.45 17.6962 11.45 18C11.45 18.3038 11.6962 18.55 12 18.55V17.45ZM23 18.55C23.3038 18.55 23.55 18.3038 23.55 18C23.55 17.6962 23.3038 17.45 23 17.45V18.55ZM12 18.55H23V17.45H12V18.55Z" fill="#94DD3E"/>
<path d="M14 20.45C13.6962 20.45 13.45 20.6962 13.45 21C13.45 21.3038 13.6962 21.55 14 21.55V20.45ZM21 21.55C21.3038 21.55 21.55 21.3038 21.55 21C21.55 20.6962 21.3038 20.45 21 20.45V21.55ZM14 21.55H21V20.45H14V21.55Z" fill="#94DD3E"/>
<path d="M11 14.45C10.6962 14.45 10.45 14.6962 10.45 15C10.45 15.3038 10.6962 15.55 11 15.55V14.45ZM24 15.55C24.3038 15.55 24.55 15.3038 24.55 15C24.55 14.6962 24.3038 14.45 24 14.45V15.55ZM11 15.55H24V14.45H11V15.55Z" fill="#94DD3E"/>
</svg>
