<svg width="201" height="63" viewBox="0 0 201 63" version="1.1" xmlns="http://www.w3.org/2000/svg" xmlns:xlink="http://www.w3.org/1999/xlink">
<g id="Canvas" fill="none">
<g id="Group 2.9">
<g id="Rectangle 2">
<rect width="200" height="62" transform="translate(0.223389 0.327637)" fill="#94D602"/>
</g>
<g id="logo-artboard">
<g id="Page 1">
<g id="Artboard">
<g id="DC 191x43 glav 01">
<g id="Group">
<g id="Shape">
<g id="Group_2">
<g id="Vector">
<path d="M 1.20155e-09 15.1102L 1.20155e-09 1.90612e-08L 5.16062 1.90612e-08C 7.25712 1.90612e-08 8.86981 0.319793 10.0793 0.95938C 11.2888 1.59897 12.2565 2.4784 12.9822 3.67762C 13.7079 4.87685 14.0304 6.15602 14.0304 7.59509C 14.0304 8.63442 13.8692 9.5938 13.466 10.4732C 13.0628 11.4326 12.4984 12.2321 11.7727 12.8717C 11.0469 13.5912 10.16 14.1509 9.19235 14.4707C 8.62791 14.7105 8.06346 14.8704 7.57966 14.9503C 7.09585 15.0303 6.20887 15.0303 4.83808 15.0303L 1.20155e-09 15.0303L 1.20155e-09 15.1102ZM 4.91871 1.91876L 2.17714 1.91876L 2.17714 13.1915L 4.99935 13.1915C 6.12823 13.1915 6.93458 13.1115 7.57966 12.9516C 8.1441 12.7917 8.70854 12.6318 9.11171 12.392C 9.51489 12.1522 9.91806 11.9123 10.2406 11.5925C 11.2888 10.4732 11.8533 9.11411 11.8533 7.51514C 11.8533 5.91618 11.2888 4.55706 10.16 3.51773C 9.75679 3.11799 9.27298 2.79819 8.78918 2.55835C 8.22473 2.3185 7.74093 2.15861 7.25712 2.07866C 6.77331 1.99871 5.96696 1.91876 4.91871 1.91876Z" transform="translate(27.7197 18.103)" fill="black"/>
</g>
<g id="Vector_2">
<path d="M 9.11171 5.35654L 2.01587 5.35654C 2.0965 6.31592 2.41904 7.03545 2.98348 7.59509C 3.54792 8.15473 4.35427 8.47452 5.24125 8.47452C 6.53141 8.47452 7.74093 8.07478 8.86981 7.2753L 8.86981 9.19406C 8.22473 9.5938 7.66029 9.91359 7.01521 10.0735C 6.45077 10.2334 5.72506 10.3133 4.91871 10.3133C 3.78983 10.3133 2.90285 10.0735 2.25777 9.5938C 1.61269 9.11411 1.04825 8.55447 0.645077 7.75499C 0.241904 6.95551 6.15194e-07 6.07607 6.15194e-07 5.11669C 6.15194e-07 3.59768 0.403173 2.39845 1.29015 1.43907C 2.17713 0.47969 3.30602 1.52489e-07 4.67681 1.52489e-07C 6.0476 1.52489e-07 7.09585 0.47969 7.90219 1.35912C 8.70854 2.3185 9.11171 3.51773 9.11171 5.03675L 9.11171 5.35654ZM 2.0965 4.23726L 7.09585 4.23726C 7.01521 3.43778 6.77331 2.87814 6.37014 2.39845C 5.96696 1.99871 5.40252 1.75886 4.67681 1.75886C 3.9511 1.75886 3.38665 1.99871 2.90285 2.39845C 2.49967 2.79819 2.17713 3.43778 2.0965 4.23726Z" transform="translate(43.1211 23.0596)" fill="black"/>
</g>
<g id="Vector_3">
<path d="M 6.15194e-07 1.90612e-08L 2.01587 1.90612e-08L 2.01587 15.1102L 6.15194e-07 15.1102L 6.15194e-07 1.90612e-08Z" transform="translate(54.0059 18.103)" fill="black"/>
</g>
<g id="Vector_4">
<path d="M 1.12888 -3.81223e-08C 1.45142 -3.81223e-08 1.77396 0.0799484 1.93523 0.319793C 2.17713 0.559639 2.25777 0.799484 2.25777 1.11928C 2.25777 1.43907 2.17713 1.67892 1.93523 1.91876C 1.69333 2.15861 1.45142 2.23855 1.12888 2.23855C 0.806346 2.23855 0.564442 2.15861 0.322538 1.91876C 0.080634 1.67892 1.23039e-06 1.43907 1.23039e-06 1.11928C 1.23039e-06 0.799484 0.080634 0.559639 0.322538 0.319793C 0.564442 0.159897 0.806346 -3.81223e-08 1.12888 -3.81223e-08ZM 0.161268 4.23726L 2.17713 4.23726L 2.17713 14.1509L 0.161268 14.1509L 0.161268 4.23726Z" transform="translate(58.1992 19.063)" fill="black"/>
</g>
<g id="Vector_5">
<path d="M 7.41839 -7.62447e-08L 9.59552 -7.62447e-08L 5.16062 10.1534L 4.51554 10.1534L 1.23039e-06 -7.62447e-08L 2.17713 -7.62447e-08L 4.91871 6.15602L 7.41839 -7.62447e-08Z" transform="translate(61.4258 23.2998)" fill="black"/>
</g>
<g id="Vector_6">
<path d="M 9.11171 5.35654L 2.01587 5.35654C 2.0965 6.31592 2.41904 7.03545 2.98348 7.59509C 3.54792 8.15473 4.35427 8.47452 5.24125 8.47452C 6.53141 8.47452 7.74093 8.07478 8.86981 7.2753L 8.86981 9.19406C 8.22474 9.5938 7.66029 9.91359 7.01521 10.0735C 6.45077 10.2334 5.72506 10.3133 4.91871 10.3133C 3.78983 10.3133 2.90285 10.0735 2.25777 9.5938C 1.53206 9.11411 1.04825 8.55447 0.645076 7.75499C 0.241903 6.95551 -6.15194e-07 6.07607 -6.15194e-07 5.11669C -6.15194e-07 3.59768 0.403174 2.39845 1.29016 1.43907C 2.17714 0.47969 3.30602 1.52489e-07 4.67681 1.52489e-07C 6.0476 1.52489e-07 7.09585 0.47969 7.90219 1.35912C 8.70854 2.3185 9.11171 3.51773 9.11171 5.03675L 9.11171 5.35654ZM 2.0965 4.23726L 7.17648 4.23726C 7.09585 3.43778 6.85394 2.87814 6.45077 2.39845C 6.0476 1.99871 5.48316 1.75886 4.75744 1.75886C 4.03173 1.75886 3.46729 1.99871 2.98348 2.39845C 2.58031 2.79819 2.25777 3.43778 2.0965 4.23726Z" transform="translate(71.0205 23.0596)" fill="black"/>
</g>
<g id="Vector_7">
<path d="M 2.0965 0.159897L 2.0965 2.4784L 2.17714 2.3185C 3.14475 0.799484 4.11236 7.62447e-08 5.07998 7.62447e-08C 5.80569 7.62447e-08 6.61204 0.399742 7.41839 1.11928L 6.37013 2.87814C 5.64442 2.23855 4.99935 1.91876 4.43491 1.91876C 3.78983 1.91876 3.22538 2.23855 2.74158 2.79819C 2.25777 3.43778 2.01587 4.15731 2.01587 4.9568L 2.01587 10.1534L 2.46077e-06 10.1534L 2.46077e-06 0.159897L 2.0965 0.159897Z" transform="translate(81.9072 23.1401)" fill="black"/>
</g>
<g id="Vector_8">
<path d="M 7.57966 -7.62447e-08L 9.83743 -7.62447e-08L 2.74158 15.0303L 0.483805 15.0303L 3.87046 7.83494L -1.23039e-06 -7.62447e-08L 2.25777 -7.62447e-08L 4.99935 5.59639L 7.57966 -7.62447e-08Z" transform="translate(89.4053 23.2998)" fill="black"/>
</g>
<g id="Vector_9">
<path d="M 13.3854 1.27917L 13.3854 2.55835C 11.5308 1.59897 9.75679 1.11928 7.98283 1.11928C 6.12824 1.11928 4.51554 1.75886 3.22539 3.03804C 1.93523 4.31721 1.29015 5.91618 1.29015 7.83494C 1.29015 9.7537 1.93523 11.3527 3.22539 12.6318C 4.51554 13.911 6.12823 14.4707 8.1441 14.4707C 9.83743 14.4707 11.6114 13.991 13.5466 12.9516L 13.5466 14.0709C 11.7727 15.0303 9.91806 15.51 8.1441 15.51C 5.80569 15.51 3.87046 14.7904 2.33841 13.2714C 0.806349 11.8324 1.23039e-06 9.99354 1.23039e-06 7.75499C 1.23039e-06 5.51644 0.806349 3.67762 2.33841 2.23855C 3.9511 0.719535 5.8057 4.76529e-09 7.98283 4.76529e-09C 9.75679 4.76529e-09 11.5308 0.399742 13.3854 1.27917Z" transform="translate(105.371 17.9434)" fill="black"/>
</g>
<g id="Vector_10">
<path d="M 1.04825 1.90612e-08L 1.04825 15.1102L -2.46077e-06 15.1102L -2.46077e-06 1.90612e-08L 1.04825 1.90612e-08Z" transform="translate(120.53 18.103)" fill="black"/>
</g>
<g id="Vector_11">
<path d="M 7.09585 9.99354L 7.09585 8.31463L 7.01521 8.31463C 6.5314 8.95422 6.0476 9.43391 5.56379 9.7537C 5.07998 10.0735 4.4349 10.1534 3.70919 10.1534C 2.66094 10.1534 1.77396 9.83365 1.04825 9.11411C 0.322541 8.39458 0 7.4352 0 6.15602L 0 0L 1.04825 0L 1.04825 6.15602C 1.04825 7.1154 1.29015 7.83494 1.77396 8.31463C 2.25777 8.87427 2.98348 9.11411 3.78983 9.11411C 4.51554 9.11411 5.07998 8.95422 5.56379 8.63442C 6.0476 8.31463 6.5314 7.75499 7.01521 6.95551L 7.01521 0L 8.06346 0L 8.06346 9.9136L 7.09585 9.9136L 7.09585 9.99354Z" transform="translate(123.998 23.2197)" fill="black"/>
</g>
<g id="Vector_12">
<path d="M 4.92155e-06 14.5506L 4.92155e-06 1.90612e-08L 1.04825 1.90612e-08L 1.04825 6.55576C 2.0965 5.43649 3.30602 4.9568 4.6768 4.9568C 5.96696 4.9568 7.09584 5.43649 7.90219 6.31592C 8.70854 7.19535 9.19235 8.39458 9.19235 9.83365C 9.19235 11.5126 8.70855 12.7917 7.6603 13.8311C 6.61205 14.7904 5.32189 15.3501 3.54792 15.3501C 2.41904 15.3501 1.20952 15.1102 4.92155e-06 14.5506ZM 1.04825 7.83494L 1.04825 13.8311C 1.85459 14.1509 2.66094 14.3108 3.54792 14.3108C 4.83808 14.3108 5.88633 13.911 6.77331 13.1115C 7.66029 12.312 8.06347 11.2727 8.06347 9.99354C 8.06347 8.79432 7.74092 7.83494 7.09584 7.1154C 6.45077 6.39587 5.64443 5.99613 4.59618 5.99613C 3.30602 5.91618 2.17713 6.55576 1.04825 7.83494Z" transform="translate(134.561 18.103)" fill="black"/>
</g>
</g>
<g id="Vector_13">
<path d="M 25.5612 20.5678C 24.8355 21.0474 23.8679 20.3279 23.2228 20.168C 22.4164 19.9282 21.6101 20.0881 20.8844 19.7683C 21.3682 20.4878 22.6583 20.7276 23.384 21.0474C 23.7066 21.2073 23.8679 21.2073 23.8679 21.3672C 23.8679 21.4472 23.8678 21.6071 23.9485 21.767C 23.9485 22.3266 23.8679 22.8063 23.8679 23.3659C 23.8679 24.4053 23.9485 25.4446 24.271 26.5639C 24.5129 27.2834 24.6742 28.4826 25.158 29.0423C 25.5612 29.522 26.932 29.3621 26.6094 30.4814C 27.3351 30.8011 27.0932 31.7605 27.6577 32.3202C 27.3351 32.1603 27.0126 32.0803 26.6094 32.0004C 25.8837 31.6806 25.2386 31.1209 24.5936 30.7212C 24.271 30.5613 23.7872 30.4014 23.6259 30.0816C 23.4647 29.7618 23.5453 29.2022 23.4647 28.8024C 23.3034 27.923 23.1421 27.0436 22.9809 26.1641C 22.9002 25.6845 22.9002 25.2048 22.739 24.805C 22.6583 24.4053 22.3358 24.0055 22.1745 23.6857C 21.852 22.9662 21.3682 22.1667 20.5618 21.8469C 19.7555 21.4472 18.9491 21.5271 18.0622 21.2873C 17.0945 21.0474 16.1269 20.7276 15.0787 20.7276C 14.1111 20.7276 13.2241 20.8875 12.2565 20.9675C 10.4825 21.1274 8.78917 21.6071 7.17648 20.4878C 6.45077 19.9282 5.64443 19.2886 5.32189 18.4091C 5.16062 17.9295 5.07998 17.6097 5.07998 17.13C 5.07998 16.5703 5.24125 16.0906 4.99934 15.531C 4.67681 14.8115 4.11237 14.1719 3.62856 13.6122C 2.17714 11.5336 1.69333 9.21509 3.22539 6.97653C 3.9511 6.01715 4.83808 4.81793 4.83808 3.6187C 4.91871 2.65932 4.193 1.93979 3.38665 2.01973C 3.06411 2.01973 1.69333 1.61999 1.69333 1.4601C 1.69333 1.3002 3.14475 0.980405 3.62856 0.820508C 4.27364 0.660612 4.51554 -0.138872 5.24125 0.0210249C 5.80569 0.100973 6.28951 0.660612 6.53141 1.1403C 7.09585 2.17963 7.01521 3.53875 6.61204 4.57808C 5.96696 6.257 4.59617 7.45622 4.35427 9.37498C 4.27363 10.4143 4.4349 11.6935 5.40252 12.1732C 6.2895 12.6529 6.77331 12.0932 7.49902 11.6935C 8.386 11.1338 9.43425 10.5742 10.4019 10.2544C 11.2082 10.0146 12.0952 10.0146 12.9822 10.0146C 14.998 10.0146 16.1269 9.69478 18.0622 10.3344C 19.9167 10.894 20.8037 11.6135 22.9002 12.6529C 24.271 12.7328 28.1415 13.0526 29.351 14.8914C 29.9154 15.7709 30.8831 16.5703 30.8024 17.6896C 30.7218 18.7289 29.9961 20.0881 29.0285 20.5678C 29.2704 19.8482 29.5123 18.7289 28.7866 18.1693C 28.3834 18.4091 28.3028 18.9688 28.3028 19.4485C 27.6577 19.3685 27.0126 18.8888 26.4482 18.7289C 25.8837 18.4891 24.9967 18.3292 24.6742 17.7696C 23.9485 18.8089 24.9967 20.3279 25.9643 20.8875L 25.5612 20.5678ZM 12.579 21.6071C 12.0146 21.8469 10.9663 21.9269 10.4019 21.9269C 10.4825 22.8863 10.7244 24.1654 10.4019 24.805C 9.75679 26.1641 8.06347 26.6438 6.69268 27.6832C 5.64443 28.4826 4.4349 29.0423 3.54792 30.0017C 3.14475 30.4014 2.74158 30.961 2.25777 31.3608C 1.8546 31.6806 0.564445 31.6806 0.241906 32.0004C 0.161272 32.1603 0 32.4801 0 32.7199C 0.645077 32.4801 2.3384 33.0397 2.74157 32.3202C 2.98348 32.64 3.30602 32.56 3.62856 32.4001C 4.27364 32.0803 4.03173 31.6006 4.43491 31.1209C 4.67681 30.8811 5.32189 30.4814 5.64442 30.1616C 7.25712 28.4027 9.27298 27.6032 11.2888 26.2441C 12.9015 25.2048 12.6596 24.885 12.4984 24.5652C 12.4177 24.4053 11.7727 23.0462 12.6596 21.9269L 12.579 21.6071Z" transform="translate(181.817 14.2461) scale(-1 1)" fill="black"/>
</g>
</g>
<g id="Shape_2">
<g id="Vector_14">
<path d="M 0 -3.81223e-08L 2.0965 -3.81223e-08C 3.70919 -3.81223e-08 4.35427 0.799484 4.35427 1.67892C 4.35427 2.3185 3.9511 2.71824 3.54792 3.03804C 4.27364 3.27788 4.67681 3.83752 4.67681 4.55706C 4.67681 5.67633 3.9511 6.39587 2.0965 6.39587L 0 6.39587L 0 -3.81223e-08ZM 2.41904 2.79819C 2.82221 2.79819 3.38665 2.55835 3.38665 1.83881C 3.38665 1.19923 2.90285 0.879432 2.0965 0.879432L 1.04825 0.879432L 1.04825 2.79819L 2.41904 2.79819ZM 1.04825 3.51773L 1.04825 5.59638L 2.17714 5.59638C 3.30602 5.59638 3.70919 5.19664 3.70919 4.47711C 3.70919 3.83752 3.22539 3.51773 2.49967 3.51773L 1.04825 3.51773Z" transform="translate(27.6394 40.6504)" fill="#231F20"/>
</g>
<g id="Vector_15">
<path d="M 3.30602 4.39716C 3.22539 4.637 2.82221 5.19664 1.77396 5.19664C 0.645077 5.19664 7.68992e-08 4.637 7.68992e-08 3.75757C 7.68992e-08 2.3185 2.0965 1.99871 3.30602 1.91876L 3.30602 1.83881C 3.30602 1.11928 2.98348 0.799483 2.17714 0.799483C 1.29015 0.799483 0.967616 1.27917 0.967616 1.27917L 0.322539 0.799483C 0.322539 0.799483 0.806346 0 2.25777 0C 3.62856 0 4.35427 0.559639 4.35427 1.83881L 4.35427 5.03675L 3.46729 5.03675L 3.30602 4.39716ZM 3.30602 3.67762L 3.30602 2.6383C 2.17713 2.71824 1.12889 2.95809 1.12889 3.67762C 1.12889 4.15731 1.45142 4.47711 2.17714 4.47711C 2.98348 4.47711 3.22539 3.75757 3.30602 3.67762Z" transform="translate(33.2029 42.0088)" fill="#231F20"/>
</g>
<g id="Vector_16">
<path d="M 6.69267 4.87685L 3.07597e-07 4.87685L 3.07597e-07 3.81223e-08L 1.04825 3.81223e-08L 1.04825 4.07737L 2.82221 4.07737L 2.82221 3.81223e-08L 3.87046 3.81223e-08L 3.87046 4.07737L 5.64442 4.07737L 5.64442 3.81223e-08L 6.69267 3.81223e-08L 6.69267 4.87685Z" transform="translate(39.0095 42.1694)" fill="#231F20"/>
</g>
<g id="Vector_17">
<path d="M 3.30602 4.39716C 3.22538 4.637 2.82221 5.19664 1.77396 5.19664C 0.645077 5.19664 -6.15193e-07 4.637 -6.15193e-07 3.75757C -6.15193e-07 2.3185 2.0965 1.99871 3.30602 1.91876L 3.30602 1.83881C 3.30602 1.11928 2.98348 0.799483 2.17714 0.799483C 1.29015 0.799483 0.967616 1.27917 0.967616 1.27917L 0.322539 0.799483C 0.322539 0.799483 0.806347 0 2.25777 0C 3.62856 0 4.35427 0.559639 4.35427 1.83881L 4.35427 5.03675L 3.46729 5.03675L 3.30602 4.39716ZM 3.22538 3.67762L 3.22538 2.6383C 2.0965 2.71824 1.04825 2.95809 1.04825 3.67762C 1.04825 4.15731 1.37079 4.47711 2.0965 4.47711C 2.98348 4.47711 3.22538 3.75757 3.22538 3.67762Z" transform="translate(46.8308 42.0088)" fill="#231F20"/>
</g>
<g id="Vector_18">
<path d="M 4.67681 4.87685L 3.62856 4.87685L 3.62856 0.799483L 2.01587 0.799483C 2.01587 3.51773 1.61269 4.9568 0.322538 4.9568C 0.241903 4.9568 0.16127 4.9568 1.23039e-06 4.9568L 1.23039e-06 4.15731L 0.0806346 4.15731C 0.806346 4.15731 1.04825 3.03804 1.04825 3.81223e-08L 4.75744 3.81223e-08L 4.75744 4.87685L 4.67681 4.87685Z" transform="translate(54.9744 42.1694)" fill="#231F20"/>
</g>
<g id="Vector_19">
<path d="M 6.77331 2.56298C 6.77331 4.16194 5.96696 5.20127 4.27364 5.20127C 2.82221 5.20127 2.01587 4.40179 1.93523 2.96272L 1.04825 2.96272L 1.04825 5.04138L -1.23039e-06 5.04138L -1.23039e-06 0.164527L 1.04825 0.164527L 1.04825 2.08329L 1.93523 2.08329C 2.0965 0.724166 2.90285 0.00463069 4.27364 0.00463069C 5.96696 -0.0753177 6.77331 0.884063 6.77331 2.56298ZM 2.90285 2.48303C 2.90285 3.60231 3.22539 4.32184 4.27364 4.32184C 5.32189 4.32184 5.72506 3.60231 5.72506 2.48303C 5.72506 1.4437 5.40252 0.644218 4.27364 0.644218C 3.22539 0.724166 2.90285 1.4437 2.90285 2.48303Z" transform="translate(61.1833 42.0835)" fill="#231F20"/>
</g>
<g id="Vector_20">
<path d="M 0.88698 3.35783C 1.20952 2.79819 1.8546 2.39845 2.74158 2.39845C 4.27364 2.39845 5.16062 3.43778 5.16062 5.03675C 5.16062 6.63571 4.193 7.67504 2.58031 7.67504C 0.806347 7.59509 0 6.55577 0 4.71695C 0 2.3185 0.403174 0.47969 2.98348 0.159897L 4.59617 0L 4.67681 1.03933L 3.30602 1.19923C 1.69333 1.27917 1.04825 1.99871 0.88698 3.35783ZM 1.12889 4.7969L 1.12889 4.9568C 1.12889 6.07607 1.53206 6.79561 2.58031 6.79561C 3.62856 6.79561 4.03173 6.15602 4.03173 4.9568C 4.03173 3.83752 3.62856 3.19793 2.58031 3.19793C 1.61269 3.19793 1.12889 3.83752 1.12889 4.7969Z" transform="translate(68.7629 39.6108)" fill="#231F20"/>
</g>
<g id="Vector_21">
<path d="M -6.15194e-07 3.81223e-08L 1.04825 3.81223e-08L 1.04825 3.35783L 3.54792 0.319793L 3.62856 3.81223e-08L 4.59617 3.81223e-08L 4.59617 4.87685L 3.54792 4.87685L 3.54792 1.59897L 1.04825 4.637L 0.967616 4.87685L -6.15194e-07 4.87685L -6.15194e-07 3.81223e-08Z" transform="translate(75.0515 42.1694)" fill="#231F20"/>
</g>
<g id="Vector_22">
<path d="M 6.12823 4.9568L 5.16062 4.9568L 5.16062 1.91876L 5.24125 1.11928L 3.62856 4.87685L 2.58031 4.87685L 0.967615 1.11928L 0.967615 1.91876L 0.967615 4.87685L 1.23039e-06 4.87685L 1.23039e-06 -7.62447e-08L 1.37079 -7.62447e-08L 3.06411 4.15731L 4.75745 -7.62447e-08L 6.12823 -7.62447e-08L 6.12823 4.9568Z" transform="translate(81.1814 42.0894)" fill="#231F20"/>
</g>
<g id="Vector_23">
<path d="M 3.30602 4.39716C 3.22539 4.637 2.82221 5.19664 1.77396 5.19664C 0.645077 5.19664 2.46077e-06 4.637 2.46077e-06 3.75757C 2.46077e-06 2.3185 2.0965 1.99871 3.30602 1.91876L 3.30602 1.83881C 3.30602 1.11928 2.98348 0.799483 2.17714 0.799483C 1.29015 0.799483 0.967616 1.27917 0.967616 1.27917L 0.322536 0.799483C 0.322536 0.799483 0.806345 0 2.25777 0C 3.62856 0 4.35427 0.559639 4.35427 1.83881L 4.35427 5.03675L 3.46729 5.03675L 3.30602 4.39716ZM 3.30602 3.67762L 3.30602 2.6383C 2.17714 2.71824 1.12888 2.95809 1.12888 3.67762C 1.12888 4.15731 1.45142 4.47711 2.17714 4.47711C 3.06412 4.47711 3.30602 3.75757 3.30602 3.67762Z" transform="translate(88.3572 42.0088)" fill="#231F20"/>
</g>
<g id="Vector_24">
<path d="M 4.27364 4.87685L 3.14475 4.87685L 3.14475 3.03804L 2.0965 3.03804L 1.12888 4.87685L -1.23039e-06 4.87685L 1.12888 2.95809C 0.403173 2.71824 0.0806322 2.23855 0.0806322 1.51902C 0.0806322 0.47969 0.725714 3.81223e-08 2.17714 3.81223e-08L 4.27364 3.81223e-08L 4.27364 4.87685ZM 2.25777 2.39845L 3.14475 2.39845L 3.14475 0.719535L 2.25777 0.719535C 1.45142 0.719535 1.04825 0.95938 1.04825 1.51902C 1.04825 2.15861 1.53206 2.39845 2.25777 2.39845Z" transform="translate(93.8406 42.1694)" fill="#231F20"/>
</g>
<g id="Vector_25">
<path d="M 5.72506 6.23597L 4.83808 6.23597L 4.83808 4.87685L 0.88698 4.87685L 0.806346 6.23597L 0.0806334 6.23597L 0 4.07737L 0.64508 4.07737C 1.12889 2.95809 1.29015 1.83881 1.29015 3.81223e-08L 4.99935 3.81223e-08L 4.99935 4.07737L 5.80569 4.07737L 5.72506 6.23597ZM 1.69333 4.07737L 4.03173 4.07737L 4.03173 0.879432L 2.17713 0.879432C 2.17713 2.07866 2.01586 3.11799 1.69333 4.07737Z" transform="translate(101.823 42.1694)" fill="#231F20"/>
</g>
<g id="Vector_26">
<path d="M 2.58031 5.27659C 0.886979 5.27659 0 4.31721 0 2.6383C 0 1.03933 0.886979 7.62447e-08 2.58031 7.62447e-08C 4.27363 7.62447e-08 5.16062 1.03933 5.16062 2.6383C 5.16062 4.31721 4.193 5.27659 2.58031 5.27659ZM 1.12889 2.6383C 1.12889 3.75757 1.53206 4.47711 2.58031 4.47711C 3.62856 4.47711 4.03173 3.75757 4.03173 2.6383C 4.03173 1.51902 3.62856 0.879432 2.58031 0.879432C 1.53206 0.879432 1.12889 1.59897 1.12889 2.6383Z" transform="translate(108.274 41.9307)" fill="#231F20"/>
</g>
<g id="Vector_27">
<path d="M 4.51554 4.23726C 4.51554 4.23726 4.11237 5.19664 2.49968 5.19664C 0.886982 5.19664 2.46077e-06 4.31721 2.46077e-06 2.6383C 2.46077e-06 1.03933 0.886981 0 2.58031 0C 3.87046 0 4.35427 0.639587 4.35427 0.639587L 4.03173 1.27917C 4.03173 1.27917 3.38665 0.799483 2.74158 0.799483C 1.69332 0.799483 1.12888 1.35912 1.12888 2.6383C 1.12888 3.91747 1.69333 4.39716 2.66094 4.39716C 3.46729 4.39716 3.95109 3.83752 3.95109 3.83752L 4.51554 4.23726Z" transform="translate(114.159 42.0088)" fill="#231F20"/>
</g>
<g id="Vector_28">
<path d="M 2.66094 0.879432L 2.66094 4.9568L 1.53206 4.9568L 1.53206 0.879432L -1.23039e-06 0.879432L -1.23039e-06 3.81223e-08L 4.03173 3.81223e-08L 4.03173 0.879432L 2.66094 0.879432Z" transform="translate(118.837 42.1694)" fill="#231F20"/>
</g>
<g id="Vector_29">
<path d="M 3.30602 4.39716C 3.22538 4.637 2.82221 5.19664 1.77396 5.19664C 0.64508 5.19664 -1.23039e-06 4.637 -1.23039e-06 3.75757C -1.23039e-06 2.3185 2.0965 1.99871 3.30602 1.91876L 3.30602 1.83881C 3.30602 1.11928 2.98348 0.799483 2.17714 0.799483C 1.29016 0.799483 0.967618 1.27917 0.967618 1.27917L 0.322539 0.799483C 0.322539 0.799483 0.806348 0 2.25777 0C 3.62856 0 4.35427 0.559639 4.35427 1.83881L 4.35427 5.03675L 3.46729 5.03675L 3.30602 4.39716ZM 3.22538 3.67762L 3.22538 2.6383C 2.0965 2.71824 1.04825 2.95809 1.04825 3.67762C 1.04825 4.15731 1.37079 4.47711 2.0965 4.47711C 2.98348 4.47711 3.22538 3.75757 3.22538 3.67762Z" transform="translate(123.271 42.0088)" fill="#231F20"/>
</g>
<g id="Vector_30">
<path d="M 4.03173 1.20788C 4.03173 1.84747 3.62856 2.16726 3.22539 2.32716C 3.7092 2.48705 4.27364 2.80685 4.27364 3.44643C 4.27364 4.32587 3.7092 4.8855 2.01587 4.8855L 2.46077e-06 4.8855L 2.46077e-06 0.00865533L 2.01587 0.00865533C 3.54793 -0.071293 4.03173 0.408397 4.03173 1.20788ZM 2.17714 2.00736C 2.17714 2.00736 2.98348 1.92742 2.98348 1.28783C 2.98348 0.888087 2.74158 0.568294 2.01587 0.568294L 0.967616 0.568294L 0.967616 1.92742L 2.17714 1.92742L 2.17714 2.00736ZM 0.967616 2.567L 0.967616 4.00607L 1.93523 4.00607C 2.90284 4.00607 3.14475 3.68628 3.14475 3.20659C 3.14475 2.80685 2.82221 2.48705 2.01587 2.48705L 0.967616 2.48705L 0.967616 2.567Z" transform="translate(129.078 42.2402)" fill="#231F20"/>
</g>
<g id="Vector_31">
<path d="M 0 3.81223e-08L 1.04825 3.81223e-08L 1.04825 2.07866L 1.61269 1.75886L 3.06412 0.0799483L 4.27364 0.0799483L 2.41904 2.23855L 4.43491 4.9568L 3.14475 4.9568L 1.53205 2.71824L 1.04825 2.95809L 1.04825 5.03675L 0 5.03675L 0 3.81223e-08Z" transform="translate(134.48 42.1694)" fill="#231F20"/>
</g>
<g id="Vector_32">
<path d="M 3.30603 4.39716C 3.22539 4.637 2.82221 5.19664 1.77396 5.19664C 0.645075 5.19664 0 4.637 0 3.75757C 0 2.3185 2.09651 1.99871 3.30603 1.91876L 3.30603 1.83881C 3.30603 1.11928 2.98348 0.799483 2.17713 0.799483C 1.29015 0.799483 0.967613 1.27917 0.967613 1.27917L 0.322534 0.799483C 0.322534 0.799483 0.806349 0 2.25777 0C 3.62856 0 4.35427 0.559639 4.35427 1.83881L 4.35427 5.03675L 3.46729 5.03675L 3.30603 4.39716ZM 3.30603 3.67762L 3.30603 2.6383C 2.17714 2.71824 1.12888 2.95809 1.12888 3.67762C 1.12888 4.15731 1.45142 4.47711 2.17713 4.47711C 3.06411 4.47711 3.30603 3.75757 3.30603 3.67762Z" transform="translate(139.319 42.0088)" fill="#231F20"/>
</g>
</g>
</g>
</g>
</g>
</g>
</g>
</g>
</g>
</svg>

