<svg width="170" height="25" viewBox="0 0 170 25" fill="none" xmlns="http://www.w3.org/2000/svg">
<path d="M0 0.666656V5.06666H8.8V23.4H13.2V5.06666H22V0.666656H0Z" fill="white"/>
<path d="M47.5999 0C40.7999 0 35.2666 5.53333 35.2666 12.3333C35.2666 19.1333 40.7999 24.6667 47.5999 24.6667C54.3999 24.6667 59.9333 19.1333 59.9333 12.3333C59.9333 5.53333 54.3999 0 47.5999 0ZM47.5999 20.2C43.2666 20.2 39.7333 16.6667 39.7333 12.3333C39.7333 8 43.2666 4.53333 47.5999 4.53333C51.9333 4.53333 55.4666 8.06667 55.4666 12.4C55.4666 16.7333 51.9333 20.2 47.5999 20.2Z" fill="white"/>
<path d="M157.333 0C150.533 0 145 5.53333 145 12.3333C145 19.1333 150.533 24.6667 157.333 24.6667C164.133 24.6667 169.667 19.1333 169.667 12.3333C169.667 5.53333 164.133 0 157.333 0ZM157.333 20.2C153 20.2 149.467 16.6667 149.467 12.3333C149.467 8 153 4.53333 157.333 4.53333C161.667 4.53333 165.2 8.06667 165.2 12.4C165.2 16.7333 161.667 20.2 157.333 20.2Z" fill="white"/>
<path d="M96.2002 21.8667L87.2669 12.9333V5.06666H96.0669V0.666656H74.0669V5.06666H82.8669V12.9333L73.9336 21.8667L77.0669 25L85.0669 17L93.0669 25L96.2002 21.8667Z" fill="#69E622"/>
<path d="M133.4 3.19998L130.267 0.0666504L122.267 8.06665L114.267 0.0666504L111.133 3.19998L120.067 12.0667V23.4H124.467V12.0667L133.4 3.19998Z" fill="white"/>
</svg>
