<svg width="35" height="35" viewBox="0 0 35 35" fill="none" xmlns="http://www.w3.org/2000/svg">
<path d="M15.6564 4.92945C15.8936 5.11921 16.2397 5.08075 16.4295 4.84356C16.6192 4.60636 16.5808 4.26025 16.3436 4.0705L15.6564 4.92945ZM10.5 4.99997L10.1479 4.57745L10.5 4.99997ZM17.55 8.99997C17.55 8.69622 17.3038 8.44997 17 8.44997C16.6962 8.44997 16.45 8.69622 16.45 8.99997H17.55ZM16.3436 4.0705C15.3465 3.27284 12.7859 2.37913 10.1479 4.57745L10.8521 5.4225C13.0141 3.62082 14.9868 4.39378 15.6564 4.92945L16.3436 4.0705ZM10.1479 4.57745C8.54917 5.90972 7.95 7.30495 7.95 8.56247C7.95 9.79563 8.5269 10.8047 9.11109 11.3889L9.88891 10.6111C9.4731 10.1953 9.05 9.45432 9.05 8.56247C9.05 7.695 9.45083 6.59022 10.8521 5.4225L10.1479 4.57745ZM9.11109 11.3889C10.1975 12.4753 12.4472 13.6413 14.746 12.4919L14.254 11.508C12.5528 12.3587 10.8025 11.5247 9.88891 10.6111L9.11109 11.3889ZM14.746 12.4919C16.8906 11.4196 17.55 9.91786 17.55 8.99997H16.45C16.45 9.41542 16.1094 10.5803 14.254 11.508L14.746 12.4919Z" fill="#666666"/>
<path d="M21.5 10.5L21.9291 10.844L21.5 10.5ZM22.55 9C22.55 8.69624 22.3038 8.45 22 8.45C21.6962 8.45 21.45 8.69624 21.45 9H22.55ZM15.5 12.05C15.6931 12.05 15.9231 12.0048 16.1302 11.9588C16.3403 11.9121 16.6123 11.8438 16.8621 11.7857C17.394 11.662 17.967 11.55 18.5 11.55V10.45C17.833 10.45 17.156 10.588 16.6129 10.7143C16.3252 10.7812 16.1035 10.8379 15.8916 10.885C15.6769 10.9327 15.5569 10.95 15.5 10.95L15.5 12.05ZM18.5 11.55C18.8651 11.55 19.1926 11.5625 19.5069 11.5711C19.8138 11.5794 20.1141 11.5842 20.3908 11.5636C20.9582 11.5213 21.5111 11.3655 21.9291 10.844L21.0709 10.156C20.9222 10.3415 20.7251 10.4356 20.3091 10.4666C20.0942 10.4826 19.8445 10.4799 19.5368 10.4715C19.2366 10.4633 18.8849 10.45 18.5 10.45V11.55ZM21.9291 10.844C22.0756 10.6613 22.2882 10.4388 22.4047 10.1505C22.5259 9.85079 22.55 9.4975 22.55 9H21.45C21.45 9.5025 21.4172 9.65832 21.3849 9.73819C21.348 9.82946 21.3106 9.85696 21.0709 10.156L21.9291 10.844Z" fill="#666666"/>
<path d="M13.254 3.00807C12.9823 3.14391 12.8722 3.47428 13.0081 3.74597C13.1439 4.01766 13.4743 4.12778 13.746 3.99194L13.254 3.00807ZM21.0081 4.74597C21.1439 5.01766 21.4743 5.12778 21.746 4.99194C22.0177 4.85609 22.1278 4.52572 21.9919 4.25403L21.0081 4.74597ZM13.746 3.99194C14.3544 3.68773 16.1036 3.05 18 3.05V1.95C15.8964 1.95 13.979 2.6456 13.254 3.00807L13.746 3.99194ZM18 3.05C19.7373 3.05 20.7408 4.21149 21.0081 4.74597L21.9919 4.25403C21.5925 3.45518 20.2627 1.95 18 1.95V3.05Z" fill="#666666"/>
<path d="M25.5 4.99998L25.8864 4.6086L25.5 4.99998ZM26.455 9.07429C26.4961 9.37526 26.7733 9.58598 27.0743 9.54494C27.3753 9.50389 27.586 9.22664 27.545 8.92567L26.455 9.07429ZM28.5 7.99998L28.94 7.66998L28.9165 7.63871L28.8889 7.61107L28.5 7.99998ZM31 12.5L30.4607 12.6078L30.4674 12.6414L30.4782 12.6739L31 12.5ZM32 15.5L32.3889 15.1111H32.3889L32 15.5ZM33 20L33.5218 20.1739L33.5285 20.1539L33.5336 20.1334L33 20ZM29.5288 14.8489C29.4454 14.5568 29.141 14.3877 28.8489 14.4711C28.5568 14.5546 28.3877 14.859 28.4712 15.1511L29.5288 14.8489ZM32.5218 17.8261C32.4257 17.5379 32.1142 17.3821 31.8261 17.4782C31.5379 17.5743 31.3822 17.8857 31.4782 18.1739L32.5218 17.8261ZM33 20.05C33.3038 20.05 33.55 19.8037 33.55 19.5C33.55 19.1962 33.3038 18.95 33 18.95L33 20.05ZM30.5081 14.754C30.3722 15.0257 30.4823 15.3561 30.754 15.4919C31.0257 15.6278 31.3561 15.5176 31.4919 15.2459L30.5081 14.754ZM20.0448 3.54815C21.9811 3.39002 23.7311 4.02637 25.1136 5.39136L25.8864 4.6086C24.2759 3.01845 22.211 2.26758 19.9552 2.4518L20.0448 3.54815ZM25.1136 5.39136C26.1999 6.46391 26.2132 7.30102 26.455 9.07429L27.545 8.92567C27.3148 7.23801 27.2857 5.99016 25.8864 4.6086L25.1136 5.39136ZM27.4576 8.80506C27.5877 8.60999 27.767 8.44403 27.918 8.37436C27.9877 8.34219 28.0263 8.34185 28.0397 8.34336C28.0444 8.3439 28.0671 8.34486 28.1111 8.38889L28.8889 7.61107C28.6829 7.4051 28.4347 7.28106 28.1634 7.25035C27.9008 7.22061 27.6582 7.28277 27.457 7.3756C27.0663 7.55593 26.7457 7.88997 26.5424 8.19489L27.4576 8.80506ZM28.06 8.32998C28.333 8.69397 28.8266 9.27782 29.3258 10.0489C29.8219 10.8151 30.2803 11.7058 30.4607 12.6078L31.5393 12.3921C31.3197 11.2941 30.7781 10.2682 30.2492 9.45109C29.7234 8.63881 29.167 7.97266 28.94 7.66998L28.06 8.32998ZM31.6111 15.8889C31.797 16.0748 32.0141 16.1997 32.1901 16.2919C32.3936 16.3985 32.5143 16.45 32.6545 16.5341C32.7773 16.6077 32.8433 16.6681 32.882 16.7246C32.9146 16.7723 32.95 16.849 32.95 17H34.05C34.05 16.651 33.9604 16.3527 33.7899 16.1035C33.6254 15.8631 33.4102 15.7047 33.2205 15.5909C33.0482 15.4875 32.8251 15.3827 32.7005 15.3175C32.5484 15.2378 32.453 15.1752 32.3889 15.1111L31.6111 15.8889ZM32.95 17C32.95 17.3456 32.8753 17.8861 32.7716 18.4505C32.6697 19.0044 32.5473 19.543 32.4664 19.8666L33.5336 20.1334C33.6194 19.7902 33.7469 19.2289 33.8534 18.6494C33.958 18.0805 34.05 17.4543 34.05 17H32.95ZM32.4782 19.8261C32.4493 19.9128 32.4037 20.0136 32.346 20.1028C32.2866 20.1947 32.2307 20.2489 32.1912 20.2741C32.162 20.2928 32.154 20.2898 32.1458 20.2883C32.1255 20.2847 32.0384 20.2606 31.8889 20.1111L31.1111 20.8889C31.3616 21.1394 31.6412 21.3153 31.9511 21.371C32.2731 21.4289 32.5588 21.3447 32.7838 21.2009C33.1942 20.9384 33.4228 20.4709 33.5218 20.1739L32.4782 19.8261ZM31.8889 20.1111C31.7521 19.9743 31.549 19.6687 31.3043 19.2088C31.0683 18.7654 30.8188 18.2275 30.5806 17.671C30.1025 16.554 29.6869 15.4021 29.5288 14.8489L28.4712 15.1511C28.6464 15.7645 29.0808 16.9626 29.5694 18.1039C29.8145 18.6766 30.0775 19.245 30.3332 19.7255C30.5802 20.1896 30.8479 20.6257 31.1111 20.8889L31.8889 20.1111ZM31.4782 18.1739C31.569 18.4462 31.7326 18.8573 31.9354 19.211C32.0357 19.3861 32.1595 19.5717 32.3055 19.7208C32.4368 19.8548 32.6742 20.05 33 20.05L33 18.95C33.1258 18.95 33.159 19.0201 33.0914 18.9511C33.0384 18.897 32.9685 18.8014 32.8896 18.6639C32.7341 18.3926 32.5977 18.0537 32.5218 17.8261L31.4782 18.1739ZM30.4782 12.6739C30.6485 13.1848 30.896 13.9782 30.5081 14.754L31.4919 15.2459C32.104 14.0218 31.6848 12.8151 31.5218 12.3261L30.4782 12.6739ZM32.3889 15.1111L31.3889 14.1111L30.6111 14.8889L31.6111 15.8889L32.3889 15.1111Z" fill="#666666"/>
<path d="M24 11.5L24.246 11.0081L24.2255 10.9978L24.2043 10.9893L24 11.5ZM26.8889 12.3889C27.1037 12.1741 27.1037 11.8259 26.8889 11.6111C26.6741 11.3963 26.3259 11.3963 26.1111 11.6111L26.8889 12.3889ZM21.2957 11.0107L23.7957 12.0107L24.2043 10.9893L21.7043 9.98934L21.2957 11.0107ZM23.754 11.9919C24.1084 12.1691 24.6685 12.4101 25.206 12.5558C25.4728 12.6282 25.7612 12.6847 26.0287 12.6875C26.2752 12.69 26.6292 12.6486 26.8889 12.3889L26.1111 11.6111C26.1708 11.5514 26.1956 11.5891 26.0401 11.5875C25.9055 11.5861 25.7189 11.5552 25.494 11.4942C25.0481 11.3733 24.5583 11.1642 24.246 11.0081L23.754 11.9919Z" fill="#666666"/>
<path d="M28.6564 15.4295C28.8936 15.6192 29.2397 15.5808 29.4295 15.3436C29.6192 15.1064 29.5808 14.7603 29.3436 14.5705L28.6564 15.4295ZM29.3436 14.5705C28.9629 14.266 28.3625 13.6682 27.8541 13.0784C27.6013 12.7851 27.3825 12.5069 27.2303 12.2798C27.1538 12.1656 27.1013 12.075 27.07 12.009C27.0311 11.9271 27.05 11.9355 27.05 12H25.95C25.95 12.1895 26.021 12.3645 26.0765 12.4813C26.1395 12.6138 26.2238 12.7537 26.3165 12.8921C26.5029 13.1702 26.7529 13.4857 27.0209 13.7966C27.5542 14.4152 28.2038 15.0674 28.6564 15.4295L29.3436 14.5705Z" fill="#666666"/>
<path d="M19.1771 29.3531C18.9399 29.1634 18.5938 29.2018 18.404 29.439C18.2143 29.6762 18.2527 30.0223 18.4899 30.2121L19.1771 29.3531ZM24.3335 29.2826L24.6856 29.7051L24.3335 29.2826ZM17.2835 25.2826C17.2835 25.5864 17.5297 25.8326 17.8335 25.8326C18.1373 25.8326 18.3835 25.5864 18.3835 25.2826L17.2835 25.2826ZM18.4899 30.2121C19.487 31.0098 22.0476 31.9035 24.6856 29.7051L23.9814 28.8601C21.8194 30.6618 19.8467 29.8888 19.1771 29.3531L18.4899 30.2121ZM24.6856 29.7051C26.2843 28.3729 26.8835 26.9776 26.8835 25.7201C26.8835 24.487 26.3066 23.4779 25.7224 22.8937L24.9446 23.6715C25.3604 24.0873 25.7835 24.8283 25.7835 25.7201C25.7835 26.5876 25.3827 27.6924 23.9814 28.8601L24.6856 29.7051ZM25.7224 22.8937C24.636 21.8073 22.3863 20.6413 20.0875 21.7907L20.5795 22.7746C22.2807 21.9239 24.031 22.7579 24.9446 23.6715L25.7224 22.8937ZM20.0875 21.7907C17.9429 22.863 17.2835 24.3647 17.2835 25.2826L18.3835 25.2826C18.3835 24.8672 18.7241 23.7023 20.5795 22.7746L20.0875 21.7907Z" fill="#94DD3E"/>
<path d="M13.3335 23.7826L12.9044 23.4386L13.3335 23.7826ZM12.2835 25.2826C12.2835 25.5863 12.5297 25.8326 12.8335 25.8326C13.1373 25.8326 13.3835 25.5863 13.3835 25.2826L12.2835 25.2826ZM19.3335 22.2326C19.1404 22.2326 18.9104 22.2778 18.7032 22.3238C18.4932 22.3705 18.2211 22.4388 17.9714 22.4969C17.4395 22.6206 16.8665 22.7326 16.3335 22.7326L16.3335 23.8326C17.0005 23.8326 17.6775 23.6946 18.2206 23.5683C18.5083 23.5014 18.73 23.4447 18.9419 23.3976C19.1566 23.3499 19.2766 23.3326 19.3335 23.3326L19.3335 22.2326ZM16.3335 22.7326C15.9684 22.7326 15.6409 22.7201 15.3266 22.7115C15.0197 22.7032 14.7194 22.6984 14.4427 22.719C13.8753 22.7613 13.3224 22.9171 12.9044 23.4386L13.7626 24.1266C13.9113 23.9411 14.1084 23.8469 14.5244 23.816C14.7393 23.7999 14.989 23.8027 15.2967 23.8111C15.5969 23.8193 15.9486 23.8326 16.3335 23.8326L16.3335 22.7326ZM12.9044 23.4386C12.7579 23.6213 12.5453 23.8438 12.4288 24.1321C12.3076 24.4318 12.2835 24.7851 12.2835 25.2826L13.3835 25.2826C13.3835 24.7801 13.4163 24.6243 13.4486 24.5444C13.4855 24.4531 13.5229 24.4256 13.7626 24.1266L12.9044 23.4386Z" fill="#94DD3E"/>
<path d="M21.5795 31.2745C21.8512 31.1387 21.9613 30.8083 21.8254 30.5366C21.6896 30.2649 21.3592 30.1548 21.0875 30.2907L21.5795 31.2745ZM13.8254 29.5366C13.6896 29.2649 13.3592 29.1548 13.0875 29.2907C12.8158 29.4265 12.7057 29.7569 12.8416 30.0286L13.8254 29.5366ZM21.0875 30.2907C20.4791 30.5949 18.7299 31.2326 16.8335 31.2326L16.8335 32.3326C18.9371 32.3326 20.8545 31.637 21.5795 31.2745L21.0875 30.2907ZM16.8335 31.2326C15.0962 31.2326 14.0927 30.0711 13.8254 29.5366L12.8416 30.0286C13.241 30.8274 14.5708 32.3326 16.8335 32.3326L16.8335 31.2326Z" fill="#94DD3E"/>
<path d="M9.3335 29.2826L8.94707 29.674L9.3335 29.2826ZM8.37845 25.2083C8.33741 24.9073 8.06016 24.6966 7.75918 24.7377C7.45821 24.7787 7.2475 25.056 7.28854 25.3569L8.37845 25.2083ZM6.3335 26.2826L5.8935 26.6126L5.91695 26.6439L5.94459 26.6715L6.3335 26.2826ZM3.8335 21.7826L4.37282 21.6747L4.3661 21.6412L4.35527 21.6087L3.8335 21.7826ZM2.8335 18.7826L2.44459 19.1715L2.44459 19.1715L2.8335 18.7826ZM1.8335 14.2826L1.31172 14.1087L1.30504 14.1287L1.29992 14.1492L1.8335 14.2826ZM4.97135 19.1511C5.05479 19.4432 5.35921 19.6123 5.65128 19.5288C5.94335 19.4454 6.11247 19.141 6.02902 18.8489L4.97135 19.1511ZM2.31172 16.4565C2.40778 16.7447 2.71925 16.9004 3.00742 16.8044C3.29559 16.7083 3.45133 16.3969 3.35527 16.1087L2.31172 16.4565ZM1.8335 14.2326C1.52974 14.2326 1.2835 14.4789 1.2835 14.7826C1.2835 15.0864 1.52974 15.3326 1.8335 15.3326L1.8335 14.2326ZM4.32543 19.5286C4.46128 19.2569 4.35115 18.9265 4.07947 18.7907C3.80778 18.6548 3.47741 18.765 3.34156 19.0366L4.32543 19.5286ZM14.7887 30.7344C12.8524 30.8926 11.1024 30.2562 9.71992 28.8912L8.94707 29.674C10.5576 31.2641 12.6225 32.015 14.8783 31.8308L14.7887 30.7344ZM9.71992 28.8912C8.63361 27.8187 8.62026 26.9816 8.37845 25.2083L7.28854 25.3569C7.51867 27.0446 7.5478 28.2924 8.94707 29.674L9.71992 28.8912ZM7.37587 25.4775C7.24582 25.6726 7.06648 25.8386 6.91551 25.9082C6.84582 25.9404 6.80718 25.9407 6.7938 25.9392C6.78906 25.9387 6.76644 25.9377 6.7224 25.8937L5.94459 26.6715C6.15056 26.8775 6.39876 27.0015 6.67007 27.0322C6.93273 27.062 7.17534 26.9998 7.37648 26.907C7.76718 26.7267 8.08784 26.3926 8.29112 26.0877L7.37587 25.4775ZM6.7735 25.9526C6.50051 25.5886 6.00685 25.0048 5.50769 24.2337C5.01164 23.4675 4.55322 22.5768 4.37282 21.6747L3.29418 21.8905C3.51377 22.9884 4.05535 24.0144 4.5843 24.8315C5.11014 25.6438 5.66649 26.3099 5.8935 26.6126L6.7735 25.9526ZM3.22241 18.3937C3.03651 18.2078 2.81942 18.0829 2.64339 17.9907C2.43985 17.8841 2.31919 17.8326 2.17897 17.7485C2.05624 17.6749 1.99017 17.6145 1.95148 17.558C1.91888 17.5103 1.8835 17.4336 1.8835 17.2826L0.783497 17.2826C0.783497 17.6316 0.873116 17.9299 1.04364 18.1791C1.20808 18.4195 1.42326 18.5779 1.61302 18.6917C1.7853 18.7951 2.00839 18.8999 2.13298 18.9651C2.28508 19.0448 2.38048 19.1074 2.44459 19.1715L3.22241 18.3937ZM1.8835 17.2826C1.8835 16.937 1.95817 16.3965 2.06193 15.832C2.16375 15.2782 2.28619 14.7395 2.36708 14.416L1.29992 14.1492C1.21414 14.4923 1.08658 15.0537 0.980061 15.6332C0.875488 16.2021 0.783497 16.8283 0.783497 17.2826L1.8835 17.2826ZM2.35527 14.4565C2.3842 14.3698 2.42979 14.2689 2.48745 14.1798C2.54692 14.0879 2.60279 14.0337 2.64226 14.0085C2.67148 13.9898 2.67947 13.9928 2.68773 13.9942C2.70803 13.9979 2.79507 14.022 2.94459 14.1715L3.72241 13.3937C3.47192 13.1432 3.1923 12.9673 2.8824 12.9116C2.56044 12.8537 2.27468 12.9379 2.04973 13.0817C1.63927 13.3442 1.4107 13.8117 1.31172 14.1087L2.35527 14.4565ZM2.94459 14.1715C3.07614 14.3031 3.25793 14.5854 3.46931 15.0144C3.67306 15.4279 3.88061 15.9276 4.07735 16.4482C4.47055 17.4887 4.80758 18.5779 4.97135 19.1511L6.02902 18.8489C5.85945 18.2554 5.51314 17.1359 5.10633 16.0594C4.90306 15.5215 4.68145 14.9856 4.45602 14.5282C4.23824 14.0862 3.99085 13.6622 3.72241 13.3937L2.94459 14.1715ZM3.35527 16.1087C3.2645 15.8364 3.10093 15.4253 2.89814 15.0716C2.79778 14.8965 2.67396 14.7109 2.52798 14.5618C2.39667 14.4278 2.15931 14.2326 1.8335 14.2326L1.8335 15.3326C1.70769 15.3326 1.67449 15.2625 1.74214 15.3315C1.79512 15.3856 1.86504 15.4812 1.94386 15.6187C2.0994 15.89 2.23582 16.2288 2.31172 16.4565L3.35527 16.1087ZM4.35527 21.6087C4.18496 21.0978 3.93752 20.3044 4.32543 19.5286L3.34156 19.0366C2.72947 20.2608 3.1487 21.4675 3.31172 21.9565L4.35527 21.6087ZM2.44459 19.1715L3.44459 20.1715L4.22241 19.3937L3.22241 18.3937L2.44459 19.1715Z" fill="#94DD3E"/>
<path d="M10.8335 22.7826L10.5875 23.2745L10.608 23.2848L10.6292 23.2933L10.8335 22.7826ZM7.94459 21.8937C7.7298 22.1085 7.7298 22.4567 7.94459 22.6715C8.15938 22.8863 8.50762 22.8863 8.72241 22.6715L7.94459 21.8937ZM13.5378 23.2719L11.0378 22.2719L10.6292 23.2933L13.1292 24.2933L13.5378 23.2719ZM11.0795 22.2907C10.7251 22.1135 10.165 21.8725 9.62745 21.7268C9.36071 21.6544 9.07232 21.5979 8.80482 21.5951C8.5583 21.5926 8.20426 21.634 7.94459 21.8937L8.72241 22.6715C8.66273 22.7312 8.63786 22.6935 8.79342 22.6951C8.92801 22.6965 9.11461 22.7274 9.33954 22.7884C9.78537 22.9093 10.2752 23.1184 10.5875 23.2745L11.0795 22.2907Z" fill="#94DD3E"/>
<path d="M6.17708 18.8531C5.93988 18.6634 5.59377 18.7018 5.40402 18.939C5.21426 19.1762 5.25272 19.5223 5.48991 19.7121L6.17708 18.8531ZM5.48991 19.7121C5.87062 20.0166 6.471 20.6144 6.97942 21.2042C7.23221 21.4974 7.45098 21.7757 7.60316 22.0028C7.67965 22.117 7.73215 22.2076 7.76353 22.2736C7.80243 22.3555 7.7835 22.3471 7.7835 22.2826L8.8835 22.2826C8.8835 22.0931 8.81247 21.9181 8.75698 21.8013C8.69395 21.6688 8.60974 21.5289 8.51696 21.3905C8.3306 21.1124 8.08061 20.7969 7.81257 20.486C7.27933 19.8674 6.6297 19.2152 6.17708 18.8531L5.48991 19.7121Z" fill="#94DD3E"/>
</svg>
