<svg width="35" height="35" viewBox="0 0 35 35" fill="none" xmlns="http://www.w3.org/2000/svg">
<path d="M13.7778 13C17.2142 13 20 16.134 20 20C20 23.866 17.2142 27 13.7778 27H8M13.7778 13C12.6444 13 9.33333 13 8 13L13.7778 13Z" stroke="#666666" stroke-width="1.1"/>
<circle cx="8" cy="20" r="3" stroke="#94DD3E" stroke-width="1.1"/>
<path d="M34.016 11.5C34.016 15.7958 34.016 23.5 34.016 23.5C33.6827 24.3333 31.916 26 27.516 26C23.116 26 21.3493 24.3333 21.016 23.5C21.016 23.5 21.016 16.1863 21.016 11.5M34.016 11.5C34.016 14.1936 31.116 15.5 27.516 15.5C21.916 15.5 20.8493 12.8333 21.016 11.5M34.016 11.5C34.016 11 33.3783 8 27.516 8C22.016 8 21.016 10.5 21.016 11.5" stroke="#666666" stroke-width="1.1"/>
<path d="M30.45 12C30.45 12.2697 30.2537 12.6214 29.702 12.9367C29.1659 13.243 28.3885 13.45 27.5 13.45C26.6115 13.45 25.8341 13.243 25.298 12.9367C24.7463 12.6214 24.55 12.2697 24.55 12C24.55 11.7303 24.7463 11.3786 25.298 11.0633C25.8341 10.757 26.6115 10.55 27.5 10.55C28.3885 10.55 29.1659 10.757 29.702 11.0633C30.2537 11.3786 30.45 11.7303 30.45 12Z" stroke="#94DD3E" stroke-width="1.1"/>
<circle cx="8" cy="20" r="7" stroke="#666666" stroke-width="1.1"/>
</svg>
