<?xml version="1.0" standalone="no"?>
<!DOCTYPE svg PUBLIC "-//W3C//DTD SVG 20010904//EN"
 "http://www.w3.org/TR/2001/REC-SVG-20010904/DTD/svg10.dtd">
<svg version="1.0" xmlns="http://www.w3.org/2000/svg"
 width="528.000000pt" height="528.000000pt" viewBox="0 0 528.000000 528.000000"
 preserveAspectRatio="xMidYMid meet">
<metadata>
Created by potrace 1.14, written by Peter Selinger 2001-2017
</metadata>
<g transform="translate(0.000000,528.000000) scale(0.100000,-0.100000)"
fill="#000000" stroke="none">
<path d="M25 5228 c-3 -12 0 -837 3 -848 1 -3 492 -4 1090 -4 l1088 1 -1 -798
0 -799 -1025 -1031 c-564 -567 -1028 -1036 -1032 -1042 -6 -10 558 -587 575
-587 6 0 764 758 1656 1658 138 138 254 252 259 252 4 0 408 -403 897 -896
1042 -1049 1007 -1014 1017 -1014 7 0 181 173 496 493 45 46 82 86 82 89 0 5
-434 443 -1623 1638 l-439 440 0 768 c1 422 1 781 1 798 l1 31 1088 1 c598 0
1095 1 1105 1 16 1 17 28 17 431 l0 430 -2625 0 c-2092 0 -2626 -3 -2630 -12z"/>
</g>
</svg>
